<svg xmlns="http://www.w3.org/2000/svg" xmlns:xlink="http://www.w3.org/1999/xlink" xmlns:sketch="http://www.bohemiancoding.com/sketch/ns" viewBox="0 0 50 48" version="1.1" x="0px" y="0px">
    <g stroke="none" stroke-width="1" fill="none" fill-rule="evenodd" sketch:type="MSPage">
        <g sketch:type="MSLayerGroup" fill="rgb(110, 107, 107)">
            <path d="M40.3,18.7 C44.1,18.7 47.1,21.7 47.1,25.4 C47.1,29.1 44,32.1 40.3,32.1 C37.6,32.1 35.2,30.5 34.1,28.1 C33.9,27.6 33.3,27.2 32.7,27.2 C32.1,27.2 31.6,27.5 31.3,28.1 C30.2,30.5 27.8,32.1 25.1,32.1 C22.4,32.1 20,30.5 18.9,28.1 C18.7,27.6 18.1,27.2 17.5,27.2 C16.9,27.2 16.4,27.5 16.1,28.1 C15,30.5 12.6,32.1 9.9,32.1 C6.1,32.1 3.1,29.1 3.1,25.4 C3.1,21.7 6.2,18.7 9.9,18.7 L40.3,18.7 L40.3,18.7 Z M40.3,15.7 L10,15.7 C4.6,15.7 0.2,20 0.2,25.4 C0.2,30.7 4.6,35.1 10,35.1 C13,35.1 15.7,33.8 17.6,31.6 C19.4,33.8 22.2,35.1 25.2,35.1 C28.2,35.1 30.9,33.8 32.8,31.6 C34.6,33.8 37.4,35.1 40.4,35.1 C45.8,35.1 50.2,30.8 50.2,25.4 C50.1,20.1 45.7,15.7 40.3,15.7 L40.3,15.7 L40.3,15.7 Z" sketch:type="MSShapeGroup" />
            <path d="M42.2,37.9 L42.2,44.4 C42.2,44.7 42,44.9 41.7,44.9 L8.6,44.9 C8.3,44.9 8.1,44.7 8.1,44.4 L8.1,37.9 C7.1,37.7 6,37.5 5.1,37.1 L5.1,44.4 C5.1,46.3 6.7,47.9 8.6,47.9 L41.7,47.9 C43.6,47.9 45.2,46.3 45.2,44.4 L45.2,37.1 C44.3,37.5 43.3,37.7 42.2,37.9 L42.2,37.9 Z" sketch:type="MSShapeGroup" />
            <path d="M25.9,18.2 C25.1,18.2 24.4,17.5 24.4,16.7 L24.4,11.6 C24.4,10.8 25.1,10.1 25.9,10.1 C26.7,10.1 27.4,10.8 27.4,11.6 L27.4,16.7 C27.4,17.6 26.7,18.2 25.9,18.2 L25.9,18.2 Z" sketch:type="MSShapeGroup" />
            <path d="M25.9,12.5 C23.3,12.5 21.2,10.4 21.2,7.8 C21.2,5.7 23.9,1.9 24.7,0.7 C25,0.3 25.4,0.1 25.9,0.1 L25.9,0.1 C26.4,0.1 26.8,0.3 27.1,0.7 C27.9,1.8 30.6,5.6 30.6,7.8 C30.6,10.3 28.5,12.5 25.9,12.5 L25.9,12.5 Z M25.9,4.2 C24.9,5.8 24.2,7.2 24.2,7.7 C24.2,8.7 25,9.4 25.9,9.4 C26.9,9.4 27.6,8.6 27.6,7.7 C27.6,7.2 26.9,5.8 25.9,4.2 L25.9,4.2 Z" sketch:type="MSShapeGroup" />
        </g>
    </g>
</svg>